<?xml version="1.0" encoding="UTF-8"?>
<svg width="53px" height="40px" viewBox="0 0 53 40" version="1.1" xmlns="http://www.w3.org/2000/svg" xmlns:xlink="http://www.w3.org/1999/xlink">
    <!-- Generator: Sketch 52 (66869) - http://www.bohemiancoding.com/sketch -->
    <title>Group 10</title>
    <desc>Created with Sketch.</desc>
    <g id="Page-1" stroke="none" stroke-width="1" fill="none" fill-rule="evenodd" opacity="0.574051339">
        <g id="Desktop-HD" transform="translate(-423.000000, -647.000000)" fill="#325FFF" fill-rule="nonzero">
            <g id="Group-10" transform="translate(423.000000, 647.000000)">
                <path d="M52.1166667,33.0434783 L50.35,33.0434783 L50.35,4.34782609 C50.3469083,1.94782609 48.3713333,0.00304350609 45.9333333,0 L7.06666667,0 C4.62866667,0.00304350609 2.65309169,1.94782609 2.65,4.34782609 L2.65,33.0434783 L0.883333333,33.0434783 C0.395291695,33.0434783 0,33.4326087 0,33.9130435 L0,36.5217391 C0,38.4426087 1.58205,40 3.53333333,40 L49.4666667,40 C51.41795,40 53,38.4426087 53,36.5217391 L53,33.9130435 C53,33.4326087 52.6047083,33.0434783 52.1166667,33.0434783 Z M4.41666667,4.34782609 C4.41666667,2.90739133 5.60342503,1.73913043 7.06666667,1.73913043 L45.9333333,1.73913043 C47.396575,1.73913043 48.5833333,2.90739133 48.5833333,4.34782609 L48.5833333,33.0434783 L46.8166667,33.0434783 L46.8166667,6.08695652 C46.8166667,4.64652177 45.6299083,3.47826087 44.1666667,3.47826087 L8.83333333,3.47826087 C7.37009169,3.47826087 6.18333333,4.64652177 6.18333333,6.08695652 L6.18333333,33.0434783 L4.41666667,33.0434783 L4.41666667,4.34782609 Z M45.05,6.08695652 L45.05,33.0434783 L31.9042333,33.0434783 C30.961275,33.0382609 30.0984792,33.5628261 29.68,34.393913 C29.56075,34.6330435 29.3123125,34.7843478 29.04135,34.7826087 L23.9542333,34.7826087 C23.68305,34.7843478 23.435275,34.6330435 23.3155833,34.393913 C22.8977667,33.563913 22.0367375,33.0402174 21.0957667,33.0434783 L7.95,33.0434783 L7.95,6.08695652 C7.95,5.60652177 8.34529169,5.2173913 8.83333333,5.2173913 L44.1666667,5.2173913 C44.6547083,5.2173913 45.05,5.60652177 45.05,6.08695652 Z M51.2333333,36.5217391 C51.2333333,37.4823913 50.4425292,38.2608696 49.4666667,38.2608696 L3.53333333,38.2608696 C2.55747082,38.2608696 1.76666667,37.4823913 1.76666667,36.5217391 L1.76666667,34.7825939 L21.0957667,34.7826087 C21.36695,34.7808696 21.614725,34.9321739 21.7344167,35.1713043 C22.1522333,36.0013044 23.0132625,36.525 23.9542333,36.5217391 L29.0457667,36.5217391 C29.988725,36.5269565 30.8515208,36.0023913 31.27,35.1713043 C31.3890292,34.9334783 31.6345958,34.7826087 31.9042333,34.7826087 L51.2333333,34.7825939 L51.2333333,36.5217391 Z" id="Shape"></path>
                <path d="M22.9760404,20.3043794 C22.9832585,20.3043794 22.9882893,20.3137774 22.9950699,20.3174929 L23.0427532,20.3365076 C23.2422357,20.4296141 23.4452178,20.5113553 23.6551993,20.5871955 C23.6891026,20.5994349 23.7232246,20.612767 23.7575653,20.6241321 C23.9546416,20.6912299 24.1556552,20.748274 24.3603872,20.7989798 C24.4067581,20.8103449 24.4522541,20.8238956 24.498625,20.834605 C24.6917643,20.876787 24.8879657,20.9082596 25.0874481,20.9331754 C25.1408184,20.9406064 25.1930951,20.9532829 25.2466841,20.9578726 C25.7458276,21.0140425 26.2489084,21.0140425 26.7478332,20.9578726 C26.8016409,20.9532829 26.8539176,20.9406064 26.9075066,20.9331754 C27.1067703,20.9082596 27.302753,20.876787 27.496111,20.834605 C27.5424819,20.8238956 27.5836033,20.8103449 27.6343488,20.7989798 C27.8390808,20.7495853 28.0403131,20.6927598 28.2373894,20.6241321 C28.2715114,20.612767 28.3056334,20.5994349 28.3399742,20.5871955 C28.5479871,20.5131038 28.7505318,20.4296141 28.9517641,20.3365076 L28.9992286,20.3174929 C29.006228,20.3174929 29.0114775,20.3076578 29.0184769,20.3043794 C31.9682796,18.8953255 33.5488279,15.6337604 32.8261415,12.4473798 C32.1034552,9.26165489 29.2695798,7 25.9997741,7 C22.7304057,7 19.8969678,9.26165489 19.173844,12.4473798 C18.4511576,15.6337604 20.0319247,18.8953255 22.9815086,20.3043794 L22.9760404,20.3043794 Z M27.745464,18.9438458 L27.73409,18.9479984 C27.4659261,19.0421976 27.1916378,19.1145408 26.9116625,19.1641539 C26.8845399,19.1693993 26.8571985,19.1731148 26.8300759,19.177486 C26.2775621,19.267314 25.7136742,19.267314 25.1611604,19.177486 C25.1340378,19.1731148 25.1066964,19.1693993 25.0795738,19.1641539 C24.7995985,19.1145408 24.5253102,19.0421976 24.2571463,18.9479984 L24.2457723,18.9438458 L24.2457723,17.5013523 C24.2457723,16.5355374 25.029047,15.7528754 25.9956182,15.7528754 C26.9621893,15.7528754 27.745464,16.5355374 27.745464,17.5013523 L27.745464,18.9438458 Z M25.1206952,13.1301601 C25.1206952,12.6471433 25.5122233,12.2559216 25.9956182,12.2559216 C26.479013,12.2559216 26.8705411,12.6471433 26.8705411,13.1301601 C26.8705411,13.6131768 26.479013,14.0043985 25.9956182,14.0043985 C25.5122233,14.0043985 25.1206952,13.6131768 25.1206952,13.1301601 Z M25.9956182,8.75896777 C28.1708953,8.75634506 30.1219735,10.0961155 30.8984676,12.1260972 C31.6758366,14.1562975 31.1171983,16.4548889 29.4953099,17.903502 L29.4953099,17.5013523 C29.4922477,16.3987191 28.9670752,15.3627465 28.0788097,14.7081605 C28.4283414,14.2557421 28.6181997,13.7010378 28.620387,13.1301601 C28.620387,11.6819841 27.444928,10.5074447 25.9956182,10.5074447 C24.5463083,10.5074447 23.3708493,11.6819841 23.3708493,13.1301601 C23.3739116,13.7001635 23.5637698,14.2531193 23.9124266,14.7037893 C23.0230674,15.359031 22.4972388,16.3971892 22.4959264,17.5013523 L22.4959264,17.903502 C20.874038,16.4548889 20.3153997,14.1562975 21.0927687,12.1260972 C21.8692628,10.0961155 23.820341,8.75634506 25.9956182,8.75896777 Z" id="Shape"></path>
                <path d="M41.1176471,23 L12.8823529,23 C12.394853,23 12,23.40275 12,23.9 L12,31.1 C12,31.59725 12.394853,32 12.8823529,32 L41.1176471,32 C41.605147,32 42,31.59725 42,31.1 L42,23.9 C42,23.40275 41.605147,23 41.1176471,23 Z M40.2352941,30.2 L13.7647059,30.2 L13.7647059,24.8 L40.2352941,24.8 L40.2352941,30.2 Z" id="Shape"></path>
                <polygon id="Shape" points="15 26 17 26 17 28 15 28"></polygon>
                <polygon id="Shape" points="18 26 20 26 20 28 18 28"></polygon>
                <polygon id="Shape" points="22 26 24 26 24 28 22 28"></polygon>
                <polygon id="Shape" points="26 26 28 26 28 28 26 28"></polygon>
                <polygon id="Shape" points="10 7 15 7 15 9 10 9"></polygon>
                <polygon id="Shape" points="16 7 18 7 18 9 16 9"></polygon>
            </g>
        </g>
    </g>
</svg>