<svg height="512" viewBox="0 0 512 512" width="512" xmlns="http://www.w3.org/2000/svg" xmlns:xlink="http://www.w3.org/1999/xlink"><linearGradient id="New_Gradient_Swatch_copy_3" gradientUnits="userSpaceOnUse" x1="256" x2="256" y1="504" y2="8"><stop offset="0" stop-color="#fbc2eb"/><stop offset="1" stop-color="#b4abd8"/></linearGradient><linearGradient id="linear-gradient" gradientTransform="matrix(0 -1 1 0 144 368)" gradientUnits="userSpaceOnUse" x1="256" x2="256" y1="40" y2="184"><stop offset=".259" stop-color="#bcd1fb"/><stop offset=".874" stop-color="#dae6fe"/><stop offset="1" stop-color="#e1ebff"/></linearGradient><g id="_18_Calculator" data-name="18 Calculator"><g id="Filled"><rect fill="url(#New_Gradient_Swatch_copy_3)" height="496" rx="48" width="416" x="48" y="8"/><rect fill="url(#linear-gradient)" height="352" rx="24" transform="matrix(0 1 -1 0 368 -144)" width="144" x="184" y="-64"/><rect fill="#9991c6" height="64" rx="16" width="64" x="368" y="216"/><rect fill="#9991c6" height="160" rx="16" width="64" x="368" y="312"/><g fill="#fcdbf4"><rect height="64" rx="16" width="64" x="80" y="216"/><rect height="64" rx="16" width="64" x="176" y="216"/><rect height="64" rx="16" width="64" x="272" y="216"/><rect height="64" rx="16" width="64" x="80" y="312"/><rect height="64" rx="16" width="64" x="176" y="312"/><rect height="64" rx="16" width="64" x="272" y="312"/><rect height="64" rx="16" width="64" x="80" y="408"/><rect height="64" rx="16" width="64" x="176" y="408"/><rect height="64" rx="16" width="64" x="272" y="408"/></g><path d="m376 160a32.036 32.036 0 0 1 -32-32v-32a32 32 0 0 1 64 0v32a32.036 32.036 0 0 1 -32 32zm0-80a16.019 16.019 0 0 0 -16 16v32a16 16 0 0 0 32 0v-32a16.019 16.019 0 0 0 -16-16z" fill="#fff"/><path d="m80 72h64v16h-64z" fill="#fff"/><path d="m80 104h112v16h-112z" fill="#fff"/><path d="m80 136h48v16h-48z" fill="#fff"/><path d="m144 136h16v16h-16z" fill="#fff"/><g id="Outline"><path d="m416 512h-320a56.063 56.063 0 0 1 -56-56v-400a56.063 56.063 0 0 1 56-56h320a56.063 56.063 0 0 1 56 56v400a56.063 56.063 0 0 1 -56 56zm-320-496a40.045 40.045 0 0 0 -40 40v400a40.045 40.045 0 0 0 40 40h320a40.045 40.045 0 0 0 40-40v-400a40.045 40.045 0 0 0 -40-40z"/><path d="m408 192h-304a32.036 32.036 0 0 1 -32-32v-96a32.036 32.036 0 0 1 32-32h304a32.036 32.036 0 0 1 32 32v96a32.036 32.036 0 0 1 -32 32zm-304-144a16.019 16.019 0 0 0 -16 16v96a16.019 16.019 0 0 0 16 16h304a16.019 16.019 0 0 0 16-16v-96a16.019 16.019 0 0 0 -16-16z"/><path d="m128 288h-32a24.028 24.028 0 0 1 -24-24v-32a24.028 24.028 0 0 1 24-24h32a24.028 24.028 0 0 1 24 24v32a24.028 24.028 0 0 1 -24 24zm-32-64a8.009 8.009 0 0 0 -8 8v32a8.009 8.009 0 0 0 8 8h32a8.009 8.009 0 0 0 8-8v-32a8.009 8.009 0 0 0 -8-8z"/><path d="m224 288h-32a24.028 24.028 0 0 1 -24-24v-32a24.028 24.028 0 0 1 24-24h32a24.028 24.028 0 0 1 24 24v32a24.028 24.028 0 0 1 -24 24zm-32-64a8.009 8.009 0 0 0 -8 8v32a8.009 8.009 0 0 0 8 8h32a8.009 8.009 0 0 0 8-8v-32a8.009 8.009 0 0 0 -8-8z"/><path d="m320 288h-32a24.028 24.028 0 0 1 -24-24v-32a24.028 24.028 0 0 1 24-24h32a24.028 24.028 0 0 1 24 24v32a24.028 24.028 0 0 1 -24 24zm-32-64a8.009 8.009 0 0 0 -8 8v32a8.009 8.009 0 0 0 8 8h32a8.009 8.009 0 0 0 8-8v-32a8.009 8.009 0 0 0 -8-8z"/><path d="m416 288h-32a24.028 24.028 0 0 1 -24-24v-32a24.028 24.028 0 0 1 24-24h32a24.028 24.028 0 0 1 24 24v32a24.028 24.028 0 0 1 -24 24zm-32-64a8.009 8.009 0 0 0 -8 8v32a8.009 8.009 0 0 0 8 8h32a8.009 8.009 0 0 0 8-8v-32a8.009 8.009 0 0 0 -8-8z"/><path d="m128 384h-32a24.028 24.028 0 0 1 -24-24v-32a24.028 24.028 0 0 1 24-24h32a24.028 24.028 0 0 1 24 24v32a24.028 24.028 0 0 1 -24 24zm-32-64a8.009 8.009 0 0 0 -8 8v32a8.009 8.009 0 0 0 8 8h32a8.009 8.009 0 0 0 8-8v-32a8.009 8.009 0 0 0 -8-8z"/><path d="m224 384h-32a24.028 24.028 0 0 1 -24-24v-32a24.028 24.028 0 0 1 24-24h32a24.028 24.028 0 0 1 24 24v32a24.028 24.028 0 0 1 -24 24zm-32-64a8.009 8.009 0 0 0 -8 8v32a8.009 8.009 0 0 0 8 8h32a8.009 8.009 0 0 0 8-8v-32a8.009 8.009 0 0 0 -8-8z"/><path d="m320 384h-32a24.028 24.028 0 0 1 -24-24v-32a24.028 24.028 0 0 1 24-24h32a24.028 24.028 0 0 1 24 24v32a24.028 24.028 0 0 1 -24 24zm-32-64a8.009 8.009 0 0 0 -8 8v32a8.009 8.009 0 0 0 8 8h32a8.009 8.009 0 0 0 8-8v-32a8.009 8.009 0 0 0 -8-8z"/><path d="m416 480h-32a24.028 24.028 0 0 1 -24-24v-128a24.028 24.028 0 0 1 24-24h32a24.028 24.028 0 0 1 24 24v128a24.028 24.028 0 0 1 -24 24zm-32-160a8.009 8.009 0 0 0 -8 8v128a8.009 8.009 0 0 0 8 8h32a8.009 8.009 0 0 0 8-8v-128a8.009 8.009 0 0 0 -8-8z"/><path d="m128 480h-32a24.028 24.028 0 0 1 -24-24v-32a24.028 24.028 0 0 1 24-24h32a24.028 24.028 0 0 1 24 24v32a24.028 24.028 0 0 1 -24 24zm-32-64a8.009 8.009 0 0 0 -8 8v32a8.009 8.009 0 0 0 8 8h32a8.009 8.009 0 0 0 8-8v-32a8.009 8.009 0 0 0 -8-8z"/><path d="m224 480h-32a24.028 24.028 0 0 1 -24-24v-32a24.028 24.028 0 0 1 24-24h32a24.028 24.028 0 0 1 24 24v32a24.028 24.028 0 0 1 -24 24zm-32-64a8.009 8.009 0 0 0 -8 8v32a8.009 8.009 0 0 0 8 8h32a8.009 8.009 0 0 0 8-8v-32a8.009 8.009 0 0 0 -8-8z"/><path d="m320 480h-32a24.028 24.028 0 0 1 -24-24v-32a24.028 24.028 0 0 1 24-24h32a24.028 24.028 0 0 1 24 24v32a24.028 24.028 0 0 1 -24 24zm-32-64a8.009 8.009 0 0 0 -8 8v32a8.009 8.009 0 0 0 8 8h32a8.009 8.009 0 0 0 8-8v-32a8.009 8.009 0 0 0 -8-8z"/></g></g></g></svg>