<svg width="35px" height="42px" id="Layer_1" data-name="Layer 1" xmlns="http://www.w3.org/2000/svg" viewBox="0 0 51.09 62.32"><defs><style>.cls-1{fill:#89a3ff;}</style></defs><title>iş</title><path class="cls-1" d="M33.52,55.81h-15a4,4,0,0,1-4-4V34.1H16.9V51.78a1.59,1.59,0,0,0,1.59,1.58h15Z" transform="translate(-14.45 -8.84)"/><rect class="cls-1" x="3.75" y="45.53" width="2.45" height="16.08"/><path class="cls-1" d="M40.69,71.16H32.81v-16H20.47V38.34a4.74,4.74,0,0,1,4.73-4.73h8.59V42H44.36v7.59H40.69Zm-5.43-2.45h3V49.57H26.5v-10h2.44v7.59h13V44.43H31.34V36.06H25.2a2.29,2.29,0,0,0-2.28,2.28V52.7H35.26Z" transform="translate(-14.45 -8.84)"/><path class="cls-1" d="M28.82,30.84a7.61,7.61,0,1,1,7.61-7.61A7.61,7.61,0,0,1,28.82,30.84Zm0-12.77A5.17,5.17,0,1,0,34,23.23,5.16,5.16,0,0,0,28.82,18.07Z" transform="translate(-14.45 -8.84)"/><path class="cls-1" d="M61.66,29l-5-5.18H48A3.76,3.76,0,0,1,44.22,20V12.6A3.75,3.75,0,0,1,48,8.84H61.49a3.75,3.75,0,0,1,3.75,3.76v9.09a2.11,2.11,0,0,1-2.1,2.11H61.77ZM48,11.29a1.3,1.3,0,0,0-1.31,1.31V20A1.31,1.31,0,0,0,48,21.35h9.93l1.42,2.07,0-2.07H62.8V12.6a1.31,1.31,0,0,0-1.31-1.31Z" transform="translate(-14.45 -8.84)"/><rect class="cls-1" x="31.48" y="38.72" width="19.49" height="2.45"/><rect class="cls-1" x="42.98" y="41.12" width="2.45" height="21.15"/><polygon class="cls-1" points="47.44 36.76 36.62 36.76 36.62 34.32 45.68 34.32 48.77 25.09 51.09 25.87 47.44 36.76"/><path class="cls-1" d="M52.23,12.73a.55.55,0,0,1,.56-.55.55.55,0,1,1,0,1.09A.55.55,0,0,1,52.23,12.73Zm0,6.25V13.72h1.1V19Z" transform="translate(-14.45 -8.84)"/><path class="cls-1" d="M56.66,15.92c1.11.22,1.59.67,1.59,1.47s-.67,1.56-1.78,1.67l-.16.31A.61.61,0,0,1,57,20c0,.44-.36.67-.91.68a1.72,1.72,0,0,1-.52-.06v-.45a1.69,1.69,0,0,0,.39.05c.24,0,.41-.05.41-.19s-.12-.2-.44-.2h-.23v-.36l.2-.39C54.78,19,54,18.4,54,17.48h1c.07.44.52.7,1.11.7s1-.28,1-.67-.25-.54-.91-.68l-.55-.11c-1-.2-1.56-.71-1.56-1.49,0-1,.83-1.6,2-1.6s2,.64,2,1.61h-1c0-.45-.42-.72-1-.72s-.9.25-.9.64.25.53.87.65Z" transform="translate(-14.45 -8.84)"/></svg>
